<?xml version="1.0" encoding="UTF-8"?>
<!DOCTYPE svg PUBLIC "-//W3C//DTD SVG 1.1//EN" "http://www.w3.org/Graphics/SVG/1.1/DTD/svg11.dtd">
<!-- Creator: CorelDRAW X6 -->
<svg xmlns="http://www.w3.org/2000/svg" xml:space="preserve" width="8.5in" height="11in" version="1.1" style="shape-rendering:geometricPrecision; text-rendering:geometricPrecision; image-rendering:optimizeQuality; fill-rule:evenodd; clip-rule:evenodd"
viewBox="0 0 8500 11000"
 xmlns:xlink="http://www.w3.org/1999/xlink">
 <defs>
  <style type="text/css">
   <![CDATA[
    .fil2 {fill:none}
    .fil5 {fill:#4A90E2}
    .fil1 {fill:#0D47A1;fill-rule:nonzero}
    .fil3 {fill:#1156B0;fill-rule:nonzero}
    .fil4 {fill:#1B81DD;fill-rule:nonzero}
    .fil0 {fill:#2196F3;fill-rule:nonzero}
   ]]>
  </style>
 </defs>
 <g id="Layer_x0020_1">
  <metadata id="CorelCorpID_0Corel-Layer"/>
  <path class="fil0" d="M3324 5141c0,-73 45,-118 116,-118 32,0 63,4 89,13 39,11 63,2 73,-25l49 -115c14,-33 2,-55 -32,-65 -57,-20 -126,-29 -207,-29 -242,0 -375,126 -375,349l0 36 -61 0c-39,0 -57,16 -57,51l0 120c0,35 18,51 57,51l61 0 0 637c0,35 18,51 57,51l175 0c39,0 57,-16 57,-51l0 -637 203 0c39,0 57,-16 57,-51l0 -120c0,-35 -18,-51 -57,-51l-203 0 0 -45z"/>
  <path class="fil0" d="M3999 5027c30,-27 47,-64 47,-106 0,-42 -16,-76 -47,-104 -30,-27 -69,-42 -116,-42 -47,0 -87,15 -118,42 -30,27 -45,62 -45,104 0,42 14,78 45,106 30,27 71,40 118,40 47,0 85,-13 116,-40zm-28 1070c39,0 57,-16 57,-51l0 -808c0,-35 -18,-51 -57,-51l-175 0c-39,0 -57,16 -57,51l0 808c0,35 18,51 57,51l175 0z"/>
  <path class="fil0" d="M4676 6045c0,35 18,51 57,51l175 0c39,0 57,-16 57,-51l0 -537c0,-220 -144,-344 -402,-344 -258,0 -402,124 -402,344l0 537c0,35 18,51 57,51l175 0c39,0 57,-16 57,-51l0 -524c0,-89 39,-135 114,-135 75,0 114,45 114,135l0 524z"/>
  <path class="fil0" d="M5448 5141c0,-73 45,-118 116,-118 32,0 63,4 89,13 39,11 63,2 73,-25l49 -115c14,-33 2,-55 -32,-65 -57,-20 -126,-29 -207,-29 -242,0 -375,126 -375,349l0 36 -61 0c-39,0 -57,16 -57,51l0 120c0,35 18,51 57,51l61 0 0 637c0,35 18,51 57,51l175 0c39,0 57,-16 57,-51l0 -637 203 0c39,0 57,-16 57,-51l0 -120c0,-35 -18,-51 -57,-51l-203 0 0 -45z"/>
  <path class="fil0" d="M6085 6096c39,0 57,-16 57,-51l0 -1172c0,-35 -18,-51 -57,-51l-175 0c-39,0 -57,16 -57,51l0 1172c0,35 18,51 57,51l175 0z"/>
  <path class="fil0" d="M7067 5238c0,-35 -18,-51 -57,-51l-166 0c-39,0 -57,16 -57,51l0 535c0,82 -37,124 -112,124 -75,0 -112,-42 -112,-124l0 -535c0,-35 -18,-51 -57,-51l-175 0c-39,0 -57,16 -57,51l0 542c0,218 142,338 396,338 254,0 396,-120 396,-338l0 -542z"/>
  <path class="fil0" d="M7796 5586l227 -339c23,-34 2,-60 -41,-60l-209 0c-30,0 -51,14 -67,38l-75 113 165 248z"/>
  <path class="fil0" d="M7631 5944l76 114c16,24 37,38 67,38l207 0c47,0 63,-26 41,-60l-197 -297 -29 -43 -165 248z"/>
  <path class="fil1" d="M7482 5225c-16,-24 -37,-38 -67,-38l-209 0c-43,0 -63,26 -41,60l263 395 -263 395c-23,34 -6,60 41,60l207 0c30,0 51,-14 67,-38l93 -140 185 -278 -165 -248 -69 -104 -43 -65z"/>
  <line class="fil2" x1="7538" y1="5309" x2="7837" y2= "5759" />
  <path class="fil0" d="M1528 6544c-288,0 -549,-117 -738,-306 -189,-189 -306,-450 -306,-738 0,-288 117,-549 306,-738 189,-189 450,-306 738,-306l0 97c-261,0 -497,107 -668,278l24 24c165,-165 392,-265 644,-265l0 111c-220,0 -420,89 -564,234 -144,144 -234,344 -234,564 0,220 89,420 234,564 144,144 344,234 564,234l0 246z"/>
  <path class="fil1" d="M1528 4772c201,0 383,81 515,213 132,132 213,314 213,515 0,201 -81,383 -213,515 -132,132 -314,213 -515,213 -201,0 -383,-81 -515,-213 -132,-132 -213,-314 -213,-515 0,-201 81,-383 213,-515 132,-132 314,-213 515,-213zm442 286c-113,-113 -269,-183 -442,-183 -173,0 -329,70 -442,183 -113,113 -183,269 -183,442 0,173 70,329 183,442 113,113 269,183 442,183 173,0 329,-70 442,-183 113,-113 183,-269 183,-442 0,-173 -70,-329 -183,-442z"/>
  <path class="fil1" d="M1528 4658c233,0 443,94 595,247 152,152 247,363 247,595 0,233 -94,443 -247,595 -152,152 -363,247 -595,247 -233,0 -443,-94 -595,-247 -152,-152 -247,-363 -247,-595 0,-233 94,-443 247,-595 152,-152 363,-247 595,-247zm512 331c-131,-131 -312,-212 -512,-212 -200,0 -381,81 -512,212 -131,131 -212,312 -212,512 0,200 81,381 212,512 131,131 312,212 512,212 200,0 381,-81 512,-212 131,-131 212,-312 212,-512 0,-200 -81,-381 -212,-512z"/>
  <path class="fil0" d="M1528 6446c9,0 17,8 17,17 0,9 -8,17 -17,17 -271,0 -516,-110 -693,-287 -177,-177 -287,-423 -287,-693 0,-271 110,-516 287,-693 177,-177 423,-287 693,-287 271,0 516,110 693,287 177,177 287,423 287,693 0,89 -12,178 -36,263 -24,85 -59,167 -105,244 -5,8 -15,11 -23,6 -8,-5 -11,-15 -6,-23 45,-74 79,-153 101,-235 23,-82 35,-168 35,-254 0,-261 -106,-498 -277,-669 -171,-171 -408,-277 -669,-277 -261,0 -498,106 -669,277 -171,171 -277,408 -277,669 0,261 106,498 277,669 171,171 408,277 669,277z"/>
  <path class="fil3" d="M1528 6209c28,0 51,23 51,51 0,28 -23,51 -51,51 -224,0 -427,-91 -574,-238 -147,-147 -238,-350 -238,-574 0,-224 91,-427 238,-574 147,-147 350,-238 574,-238 224,0 427,91 574,238 147,147 238,350 238,574 0,100 -19,199 -54,291 -36,92 -88,178 -155,253 -19,21 -51,23 -72,4 -21,-19 -23,-51 -4,-72 59,-65 105,-140 136,-220 31,-80 47,-166 47,-255 0,-196 -79,-373 -208,-501 -128,-128 -306,-208 -501,-208 -196,0 -373,79 -501,208 -128,128 -208,306 -208,501 0,196 79,373 208,501 128,128 306,208 501,208z"/>
  <path class="fil4" d="M1528 4591c251,0 478,102 642,266 164,164 266,392 266,642 0,251 -102,478 -266,642 -164,164 -392,266 -642,266 -251,0 -478,-102 -642,-266 -164,-164 -266,-392 -266,-642 0,-251 102,-478 266,-642 164,-164 392,-266 642,-266zm570 338c-146,-146 -348,-236 -570,-236 -223,0 -424,90 -570,236 -146,146 -236,348 -236,570 0,223 90,424 236,570 146,146 348,236 570,236 223,0 424,-90 570,-236 146,-146 236,-348 236,-570 0,-223 -90,-424 -236,-570z"/>
  <path class="fil0" d="M1528 6526c9,0 17,8 17,17 0,9 -8,17 -17,17 -293,0 -558,-119 -750,-310 -192,-192 -310,-457 -310,-750 0,-293 119,-558 310,-750 192,-192 457,-310 750,-310 293,0 558,119 750,310 192,192 310,457 310,750 0,49 -3,97 -10,146 -7,48 -17,96 -30,143 -3,9 -12,14 -21,12 -9,-3 -14,-12 -12,-21 13,-46 23,-92 29,-139 6,-47 10,-94 10,-141 0,-283 -115,-540 -300,-725 -186,-186 -442,-300 -725,-300 -283,0 -540,115 -725,300 -186,186 -300,442 -300,725 0,283 115,540 300,725 186,186 442,300 725,300z"/>
  <path class="fil5" d="M1528 6409c-42,0 -76,34 -76,76 0,42 34,76 76,76 42,0 76,-34 76,-76 0,-42 -34,-76 -76,-76z"/>
 </g>
</svg>
